<svg width="133" height="29" viewBox="0 0 133 29" fill="none" xmlns="http://www.w3.org/2000/svg">
<path d="M78.4487 26.9434L78.5626 27.9369L78.4487 26.9434ZM3.80052 5.03775L3.16788 5.81219L3.80052 5.03775ZM0.899722 1.75503C0.350223 1.81041 -0.0503454 2.30076 0.00502955 2.85026L0.907434 11.8049C0.962815 12.3544 1.45316 12.755 2.00266 12.6996C2.55216 12.6442 2.95273 12.1539 2.89736 11.6044L2.09522 3.64469L10.0549 2.84255C10.6044 2.78717 11.005 2.29682 10.9496 1.74732C10.8942 1.19781 10.4039 0.797251 9.85437 0.852624L0.899722 1.75503ZM132.5 20.75L132.386 19.7565L78.3349 25.9499L78.4487 26.9434L78.5626 27.9369L132.614 21.7435L132.5 20.75ZM3.80052 5.03775L4.43316 4.26331L1.63264 1.97555L0.999991 2.74999L0.367346 3.52443L3.16788 5.81219L3.80052 5.03775ZM78.4487 26.9434L78.3349 25.9499C51.7836 28.9922 25.1302 21.1707 4.43316 4.26331L3.80052 5.03775L3.16788 5.81219C24.283 23.0612 51.4749 31.0407 78.5626 27.9369L78.4487 26.9434Z" fill="white"/>
</svg>
