<svg width="15" height="20" viewBox="0 0 15 20" fill="none" xmlns="http://www.w3.org/2000/svg">
<path d="M7.41364 15.8621H9.4826V17.931H7.41364V20H4.65503V17.931H2.58606V15.8621H4.65503V14.3089C2.27536 13.6965 0.51709 11.5364 0.51709 8.96552C0.51709 5.91843 2.98722 3.44825 6.03431 3.44825C7.02659 3.44825 7.95767 3.71021 8.76217 4.16869L10.8619 2.06897L8.79296 0H14.9999V6.20691L12.9309 4.13794L10.8311 6.23766C11.2896 7.0422 11.5516 7.97328 11.5516 8.96552C11.5516 11.5364 9.79325 13.6965 7.41364 14.3089V15.8621ZM6.03431 5.51726C4.1299 5.51726 2.58606 7.06111 2.58606 8.96552C2.58606 10.87 4.1299 12.4138 6.03431 12.4138C7.93876 12.4138 9.4826 10.87 9.4826 8.96552C9.4826 7.06111 7.93876 5.51726 6.03431 5.51726Z" fill="#FFAA00"/>
</svg>
