<svg width="22" height="22" viewBox="0 0 22 22" fill="none" xmlns="http://www.w3.org/2000/svg">
<path d="M14.6098 0.564453L0.799316 14.375L7.85982 21.4355L21.6703 7.62495L14.6098 0.564453ZM3.35986 14.375L14.3599 3.375L18.7348 7.62495L18.4888 8.1552L17.3901 7.0947L16.3296 8.1552L17.6743 9.49995L16.4848 10.6895L13.6401 7.8447L12.5796 8.9052L15.4243 11.75L14.2348 12.9395L12.8901 11.5947L11.8296 12.6552L13.1743 14L11.9848 15.1895L10.6401 13.8447L9.57957 14.9052L10.9243 16.25L9.73482 17.4395L6.89007 14.5947L5.82957 15.6552L8.35986 18.375L7.85986 18.875L3.35986 14.375Z" fill="#FFAA00"/>
</svg>
